<svg xmlns="http://www.w3.org/2000/svg" version="1.1" xmlns:xlink="http://www.w3.org/1999/xlink" xmlns:svgjs="http://svgjs.dev/svgjs" width="1000" height="803" viewBox="0 0 1000 803"><g transform="matrix(1,0,0,1,0,0)"><svg viewBox="0 0 448 360" data-background-color="#ffffff" preserveAspectRatio="xMidYMid meet" height="803" width="1000" xmlns="http://www.w3.org/2000/svg" xmlns:xlink="http://www.w3.org/1999/xlink"><g id="tight-bounds" transform="matrix(1,0,0,1,0,0)"><svg viewBox="0 0 448 360" height="360" width="448"><g><svg></svg></g><g><svg viewBox="0 0 448 360" height="360" width="448"><g><path xmlns="http://www.w3.org/2000/svg" d="M193.855 44.683c1.378 0 2.494 1.116 2.495 2.494 0 1.378-1.116 2.494-2.495 2.495h-23.846l-17.167 17.167c-0.973 0.973-2.551 0.973-3.53 0-0.973-0.973-0.973-2.551 0-3.529l13.644-13.645h-40.378c-11.518 0-19.151 2.688-23.815 8.113-4.739 5.519-6.66 14.056-6.66 25.63 0 0.069 0 0.137-0.006 0.206l0.212 36.692 14.692-14.692c0.973-0.973 2.551-0.973 3.53 0 0.973 0.973 0.973 2.551 0 3.53l-18.178 18.178c0.206 35.832 0.193 71.358-0.013 107.19 25.486 25.2 50.617 50.312 75.811 75.791h25.38c1.378 0 2.494 1.116 2.495 2.495 0 1.378-1.116 2.494-2.495 2.494h-20.448l25.942 26.241 0.006-0.006c8.188 8.188 15.577 12.859 22.824 13.413 7.146 0.543 14.442-2.956 22.586-11.093l28.555-28.555h-20.722c-1.378 0-2.494-1.116-2.495-2.494 0-1.378 1.116-2.494 2.495-2.495h25.711l16.625-16.625c0.973-0.973 2.551-0.973 3.529 0 0.973 0.973 0.973 2.551 0 3.53l-13.101 13.102h40.377c11.518 0 19.151-2.688 23.815-8.113 4.739-5.519 6.66-14.056 6.66-25.63h0.013l-0.212-36.898-16.014 16.014c-0.973 0.973-2.551 0.973-3.53 0-0.973-0.973-0.973-2.551 0-3.53l19.5-19.5c-0.206-35.832-0.193-71.358 0.013-107.19-25.486-25.2-50.617-50.312-75.811-75.791h-26.147c-1.378 0-2.494-1.116-2.495-2.495 0-1.378 1.116-2.494 2.495-2.494h21.215l-25.824-26.123c-0.044-0.037-0.081-0.075-0.124-0.112-8.188-8.188-15.577-12.859-22.824-13.413-7.146-0.543-14.442 2.956-22.586 11.093l-28.555 28.555h18.858zM122.578 44.683h45.367l32.078-32.078c9.248-9.248 17.81-13.195 26.484-12.534 8.568 0.649 16.956 5.824 25.985 14.854 0.05 0.05 0.094 0.094 0.137 0.143l29.278 29.615h43.508c13.071 0 21.919 3.268 27.594 9.871 5.6 6.517 7.864 16.101 7.864 28.867 0 0.081-0.006 0.156-0.012 0.23l-0.225 39.742 28.43 28.112 0.006-0.006c9.03 9.03 14.206 17.411 14.854 25.985 0.661 8.674-3.293 17.236-12.534 26.484l-30.768 30.768 0.237 41.843h0.012c0 12.765-2.27 22.35-7.864 28.867-5.675 6.604-14.524 9.872-27.594 9.871h-45.366l-32.078 32.078c-9.248 9.248-17.81 13.195-26.484 12.534-8.568-0.649-16.956-5.824-25.985-14.854l0.006-0.006-29.421-29.758h-43.509c-13.071 0-21.919-3.268-27.594-9.872-5.6-6.517-7.864-16.101-7.863-28.866h0.012l0.231-39.972-28.293-27.969c-0.05-0.044-0.1-0.087-0.143-0.137-9.03-9.03-14.206-17.411-14.854-25.985-0.661-8.674 3.293-17.236 12.534-26.484l30.768-30.768-0.237-41.607c-0.006-0.075-0.012-0.156-0.012-0.23 0-12.765 2.27-22.35 7.864-28.867 5.675-6.604 14.524-9.872 27.594-9.871zM87.682 179.997l-0.274-47.724-27.276 27.276c-8.138 8.138-11.636 15.44-11.094 22.587 0.549 7.246 5.226 14.642 13.413 22.823 0.037 0.037 0.081 0.081 0.113 0.125l24.837 24.551 0.281-49.644zM92.303 241.483l-0.2 35.09h0.013c0 11.58 1.921 20.117 6.66 25.63 4.664 5.432 12.297 8.113 23.815 8.113h38.576l-33.55-33.936-35.308-34.903zM325.415 49.672h-38.575l33.549 33.936 35.308 34.902 0.2-34.884c-0.006-0.069-0.006-0.137-0.007-0.205 0-11.58-1.921-20.117-6.66-25.63-4.664-5.432-12.297-8.113-23.815-8.113zM360.599 130.352l-0.281 49.645 0.274 47.724 27.276-27.276c8.138-8.138 11.636-15.44 11.094-22.587-0.549-7.252-5.226-14.642-13.413-22.824l0.006-0.006-24.956-24.669z" fill="#e65728" fill-rule="nonzero" stroke="none" stroke-width="1" stroke-linecap="butt" stroke-linejoin="miter" stroke-miterlimit="10" stroke-dasharray="" stroke-dashoffset="0" font-family="none" font-weight="none" font-size="none" text-anchor="none" style="mix-blend-mode: normal" data-fill-palette-color="tertiary"></path></g><g transform="matrix(1,0,0,1,112,140.08800870951995)"><svg viewBox="0 0 224 79.82398258096012" height="79.82398258096012" width="224"><g><svg viewBox="0 0 224 79.82398258096012" height="79.82398258096012" width="224"><g><svg viewBox="0 0 224 79.82398258096012" height="79.82398258096012" width="224"><g transform="matrix(1,0,0,1,0,48.247090799023596)"><svg viewBox="0 0 224 31.57689178193653" height="31.57689178193653" width="224"><g id="textblocktransform"><svg viewBox="0 0 224 31.57689178193653" height="31.57689178193653" width="224" id="textblock"><g><svg viewBox="0 0 224 31.57689178193653" height="31.57689178193653" width="224"><g transform="matrix(1,0,0,1,0,0)"><svg width="224" viewBox="2.1500000953674316 -34.349998474121094 245.77999877929688 34.64999771118164" height="31.57689178193653" data-palette-color="#e65728"><path d="M17.9-26.1L17.9-26.1Q15.75-26.1 14.73-24.85 13.7-23.6 13.7-20.4L13.7-20.4 13.7-14.5 22-14.5 22-20.5Q22-22.6 21.5-23.88 21-25.15 20.13-25.63 19.25-26.1 17.9-26.1ZM22-4.95L22-7.6 13.7-7.6 13.7-4.95Q13.7-2.4 12.35-1.2 11 0 7.7 0L7.7 0Q6.3 0 5.4-0.4 4.5-0.8 3.83-1.75 3.15-2.7 2.83-4.53 2.5-6.35 2.33-8.93 2.15-11.5 2.15-15.45L2.15-15.45Q2.15-18.9 2.88-21.78 3.6-24.65 4.83-26.65 6.05-28.65 7.6-30.18 9.15-31.7 10.98-32.55 12.8-33.4 14.53-33.83 16.25-34.25 18-34.25L18-34.25Q20.1-34.25 22.15-33.68 24.2-33.1 26.3-31.7 28.4-30.3 29.98-28.23 31.55-26.15 32.55-22.85 33.55-19.55 33.55-15.45L33.55-15.45Q33.55-8.85 33.08-5.68 32.6-2.5 31.48-1.25 30.35 0 28 0L28 0Q24.7 0 23.35-1.2 22-2.4 22-4.95L22-4.95ZM48.9-28.7L48.9-7.55Q48.9-3.5 47.55-1.75 46.2 0 43.4 0L43.4 0Q40.6 0 39.3-1.58 38-3.15 38-7.15L38-7.15 37.9-28.25Q37.9-29.55 38.17-30.55 38.45-31.55 38.92-32.25 39.4-32.95 40.1-33.4 40.8-33.85 41.62-34.05 42.45-34.25 43.4-34.25L43.4-34.25Q46.15-34.25 47.52-33.15 48.9-32.05 48.9-28.7L48.9-28.7ZM97.54-5.2L97.54-18.3 91.29-5.5Q90.49-3.9 89.59-3.23 88.69-2.55 87.44-2.55L87.44-2.55Q85.84-2.55 84.74-3.68 83.64-4.8 81.89-7.75L81.89-7.75 76.09-18.3 76.09-4.15Q76.09-2 75.12-1 74.14 0 72.19 0L72.19 0Q69.99 0 68.99-0.98 67.99-1.95 67.99-4.8L67.99-4.8 67.99-26.6Q67.99-30.45 69.74-32.4 71.49-34.35 75.64-34.35L75.64-34.35Q77.19-34.35 78.34-33.83 79.49-33.3 80.07-32.63 80.64-31.95 81.19-30.95L81.19-30.95 87.89-16.3 94.99-30.7Q96.84-34.3 101.64-34.3L101.64-34.3Q103.89-34.3 105.49-33.52 107.09-32.75 108.02-31.03 108.94-29.3 108.94-26.7L108.94-26.7 108.94-4.95Q108.89 0 102.69 0L102.69 0Q100.44 0 99.02-1.23 97.59-2.45 97.54-5.2L97.54-5.2ZM122.89 0.3L122.89 0.3Q118.94 0.3 116.34-2.93 113.74-6.15 113.74-11.75L113.74-11.75Q113.74-17.45 116.32-20.83 118.89-24.2 122.89-24.2L122.89-24.2Q126.94-24.2 130.39-21.35L130.39-21.35Q131.74-23.85 134.74-23.85L134.74-23.85Q137.44-23.85 138.94-22.68 140.44-21.5 140.44-18.35L140.44-18.35 140.44-5.35Q140.44-2.35 139.19-1.18 137.94 0 134.79 0L134.79 0Q131.49 0 130.44-1.85L130.44-1.85Q127.24 0.3 122.89 0.3ZM129.69-7.2L129.69-16.55Q128.84-18 127.49-18L127.49-18Q126.19-18 125.39-16.1 124.59-14.2 124.59-11.75L124.59-11.75Q124.59-9.45 125.34-7.65 126.09-5.85 127.44-5.85L127.44-5.85Q128.84-5.85 129.69-7.2L129.69-7.2ZM174.79-4.15L174.79-13.2Q174.79-16 172.54-16L172.54-16Q171.54-16 171.04-14.85 170.54-13.7 170.54-11.95L170.54-11.95Q170.54-9.3 170.46-7.55 170.39-5.8 170.14-4.4 169.89-3 169.54-2.2 169.19-1.4 168.59-0.88 167.99-0.35 167.24-0.18 166.49 0 165.34 0L165.34 0Q163.59 0 162.51-0.5 161.44-1 160.99-1.9 160.54-2.8 160.54-4.15L160.54-4.15 160.54-13.2Q160.54-16 158.29-16L158.29-16Q157.39-16 156.81-14.98 156.24-13.95 156.24-12.3L156.24-12.3 156.24-5.35Q156.24-2.35 154.99-1.18 153.74 0 150.59 0L150.59 0Q147.64 0 146.56-1.38 145.49-2.75 145.49-5.9L145.49-5.9 145.49-18.2Q145.49-20.75 146.86-22.3 148.24-23.85 150.54-23.85L150.54-23.85Q154.64-23.85 155.74-21.2L155.74-21.2Q157.64-22.6 159.46-23.15 161.29-23.7 163.74-23.7L163.74-23.7Q167.44-23.7 169.09-20.5L169.09-20.5Q169.34-20.7 169.59-20.9L169.59-20.9Q173.44-23.7 179.04-23.7L179.04-23.7Q182.59-23.7 184.14-21 185.69-18.3 185.69-11.95L185.69-11.95Q185.69-9.3 185.61-7.55 185.54-5.8 185.29-4.4 185.04-3 184.66-2.2 184.29-1.4 183.61-0.88 182.94-0.35 182.11-0.18 181.29 0 180.04 0L180.04 0Q178.14 0 176.96-0.5 175.79-1 175.29-1.9 174.79-2.8 174.79-4.15L174.79-4.15ZM201.29-19.7L201.34-10.55Q201.34-7.7 203.54-7.7L203.54-7.7Q204.29-7.7 204.86-8.18 205.44-8.65 205.74-9.5 206.04-10.35 206.04-11.45L206.04-11.45 206.04-18.15Q206.04-19.85 206.64-21.13 207.24-22.4 208.39-23.1 209.54-23.8 211.09-23.8L211.09-23.8Q213.79-23.8 215.29-22.63 216.79-21.45 216.79-18.3L216.79-18.3 216.79-5.3Q216.79-2.25 215.54-1.1 214.29 0.05 211.14 0.05L211.14 0.05Q209.79 0.05 208.84-0.23 207.89-0.5 207.31-1.05 206.74-1.6 206.44-2.5L206.44-2.5Q204.39-1.15 202.11-0.6 199.84-0.05 197.04-0.05L197.04-0.05Q193.49-0.05 191.94-2.83 190.39-5.6 190.39-11.95L190.39-11.95Q190.39-15.1 190.54-17.07 190.69-19.05 191.01-20.48 191.34-21.9 192.01-22.6 192.69-23.3 193.61-23.6 194.54-23.9 196.04-23.9L196.04-23.9Q198.84-23.9 200.06-22.85 201.29-21.8 201.29-19.7L201.29-19.7ZM237.03-4.15L236.98-13.45Q236.98-16.25 234.78-16.25L234.78-16.25Q233.73-16.25 233.06-15.38 232.38-14.5 232.28-13.05L232.28-13.05 232.28-5.35Q232.28-2.3 231.03-1.15 229.78 0 226.63 0L226.63 0Q223.68 0 222.61-1.38 221.53-2.75 221.53-5.9L221.53-5.9 221.53-18.2Q221.53-20.75 222.91-22.3 224.28-23.85 226.58-23.85L226.58-23.85Q228.48-23.85 229.78-23.3 231.08-22.75 231.73-21.4L231.73-21.4Q235.63-23.95 241.23-23.95L241.23-23.95Q244.78-23.95 246.36-21.15 247.93-18.35 247.93-11.95L247.93-11.95Q247.93-8.8 247.78-6.83 247.63-4.85 247.31-3.43 246.98-2 246.28-1.3 245.58-0.6 244.66-0.3 243.73 0 242.28 0L242.28 0Q239.48 0 238.26-1.05 237.03-2.1 237.03-4.15L237.03-4.15Z" opacity="1" transform="matrix(1,0,0,1,0,0)" fill="#e65728" class="undefined-text-0" data-fill-palette-color="primary" id="text-0"></path></svg></g></svg></g></svg></g></svg></g><g transform="matrix(1,0,0,1,90.18036777868186,0)"><svg viewBox="0 0 43.63926444263629 43.63926444263629" height="43.63926444263629" width="43.63926444263629"><g><svg xmlns="http://www.w3.org/2000/svg" xmlns:xlink="http://www.w3.org/1999/xlink" version="1.1" x="0" y="0" viewBox="0 0 16 16" style="enable-background:new 0 0 16 16;" xml:space="preserve" height="43.63926444263629" width="43.63926444263629" class="icon-icon-0" data-fill-palette-color="accent" id="icon-0"><g fill="#e65728" data-fill-palette-color="accent"><path d="M12 1H4V0H0v4h1v8H0v4h4v-1h8v1h4v-4h-1V4h1V0h-4V1zM13 12h-1v1H4v-1H3V4h1V3h8v1h1V12z" fill="#e65728" data-fill-palette-color="accent"></path></g></svg></g></svg></g><g></g></svg></g></svg></g></svg></g></svg></g><defs></defs></svg><rect width="448" height="360" fill="none" stroke="none" visibility="hidden"></rect></g></svg></g></svg>